<!-- Logo by Henrik Abonyi (Just customized the colors and convert to SVG format) https://dribbble.com/shots/21276242-Task-Management-App-Icon -->
<svg width="338" height="338" viewBox="0 0 338 338" fill="none" xmlns="http://www.w3.org/2000/svg">
<rect width="338" height="338" fill="#1E1E1E"/>
<g clip-path="url(#clip0_0_1)">
<path d="M0 103.805C0 46.4752 46.4752 0 103.805 0H234.195C291.525 0 338 46.4752 338 103.805V234.195C338 291.525 291.525 338 234.195 338H103.805C46.4752 338 0 291.525 0 234.195V103.805Z" fill="#FFD700"/>
<path d="M0 131.27C0 75.4656 53.8015 67.8559 64.5618 69.1242L274.071 90.0508C324.202 95.124 338 135.075 338 154.099V234.001C338 291.438 291.525 338 234.195 338H103.805C46.4752 338 0 291.438 0 234.001V131.27Z" fill="#DC3545"/>
<path d="M0 240.635C-3.07188e-06 207.759 17.7162 181.837 60.7414 178.044C102.326 174.378 262.123 158.308 272.777 157.236C273.17 157.197 273.513 157.157 273.906 157.121C290.868 155.574 337.874 168.471 337.874 215.978C337.874 227.991 337.874 232.316 337.874 240.635C337.874 278 303.074 338 233.475 338H103.767C45 338 4.53192e-06 289.138 0 240.635Z" fill="#28A745"/>
<path d="M50 257.261L79.8286 287L137 230" stroke="white" stroke-width="14" stroke-linecap="round"/>
</g>
<defs>
<clipPath id="clip0_0_1">
<rect width="338" height="338" fill="white"/>
</clipPath>
</defs>
</svg>
